<?xml version="1.0" encoding="UTF-8" standalone="no"?>
<!-- Created with Inkscape (http://www.inkscape.org/) -->

<svg
   xmlns:dc="http://purl.org/dc/elements/1.1/"
   xmlns:cc="http://creativecommons.org/ns#"
   xmlns:rdf="http://www.w3.org/1999/02/22-rdf-syntax-ns#"
   xmlns:svg="http://www.w3.org/2000/svg"
   xmlns="http://www.w3.org/2000/svg"
   xmlns:sodipodi="http://sodipodi.sourceforge.net/DTD/sodipodi-0.dtd"
   xmlns:inkscape="http://www.inkscape.org/namespaces/inkscape"
   width="210mm"
   height="297mm"
   viewBox="0 0 744.09448819 1052.3622047"
   id="svg2"
   version="1.1"
   inkscape:version="0.92.4 (5da689c313, 2019-01-14)"
   sodipodi:docname="Haus_Tonne.svg"
   inkscape:export-filename="E:\privat\Dropbox\Elektronik\Blog\Wassertonne\Haus_Tonne.png"
   inkscape:export-xdpi="165.8744"
   inkscape:export-ydpi="165.8744">
  <defs
     id="defs4">
    <linearGradient
       x1="94.537"
       x2="95.334"
       gradientTransform="scale(4.0439,0.24729)"
       y1="2984.5"
       gradientUnits="userSpaceOnUse"
       y2="3173.3"
       id="linearGradient571">
      <stop
         offset="0"
         stop-color="#008700"
         id="stop569" />
      <stop
         offset="1"
         stop-opacity="0"
         stop-color="#fff"
         id="stop570" />
    </linearGradient>
  </defs>
  <sodipodi:namedview
     id="base"
     pagecolor="#ffffff"
     bordercolor="#666666"
     borderopacity="1.0"
     inkscape:pageopacity="0.0"
     inkscape:pageshadow="2"
     inkscape:zoom="2.8"
     inkscape:cx="266.48775"
     inkscape:cy="944.86436"
     inkscape:document-units="px"
     inkscape:current-layer="layer1"
     showgrid="false"
     inkscape:window-width="2560"
     inkscape:window-height="1346"
     inkscape:window-x="3061"
     inkscape:window-y="-11"
     inkscape:window-maximized="1"
     showguides="true"
     inkscape:guide-bbox="true">
    <sodipodi:guide
       position="308.09653,467.57437"
       orientation="0,1"
       id="guide4207"
       inkscape:locked="false" />
  </sodipodi:namedview>
  <metadata
     id="metadata7">
    <rdf:RDF>
      <cc:Work
         rdf:about="">
        <dc:format>image/svg+xml</dc:format>
        <dc:type
           rdf:resource="http://purl.org/dc/dcmitype/StillImage" />
        <dc:title />
      </cc:Work>
    </rdf:RDF>
  </metadata>
  <g
     inkscape:label="Ebene 1"
     inkscape:groupmode="layer"
     id="layer1">
    <g
       transform="matrix(0.24655147,0,0,0.24655147,38.520038,13.483283)"
       id="g573">
      <path
         transform="translate(0,-3.0518e-5)"
         d="m 124.49,360.19 c -4.98,123.39 -9.96,246.77 -4.98,370.16 13.83,3.59 478.32,-0.28 509.58,3.32 -3.59,-134.18 11.07,-254.24 6.64,-380.12 -91.29,-29.32 -182.58,-58.65 -273.88,-87.97 -79.12,31.54 -158.24,63.08 -237.36,94.61 z"
         id="path558"
         inkscape:connector-curvature="0"
         style="fill:#ffffde;fill-rule:evenodd;stroke:#000000;stroke-width:5" />
      <path
         transform="matrix(1,0,0,1.3115,0.82994,-139.96)"
         d="m 165.99,421.61 0,111.21 180.92,1.66 c 0,0 3.32,-116.19 -1.66,-114.53 -4.97,1.66 -180.92,3.32 -179.26,1.66 z"
         id="path559"
         inkscape:connector-curvature="0"
         style="fill:#a33d1e;fill-rule:evenodd;stroke:#000000;stroke-width:4.36590004" />
      <path
         transform="matrix(1,0,0,1.3115,0.82994,-139.96)"
         d="m 177.61,439.87 3.32,76.35 142.75,1.66 0,-79.67 -146.07,1.66 z"
         id="path560"
         inkscape:connector-curvature="0"
         style="fill:#ffdc65;fill-rule:evenodd;stroke:#000000;stroke-width:4.36590004" />
      <path
         d="m 401.69,730.35 c -5.81,-59.76 1.66,-167.65 0,-253.97 35.13,-2.48 136.66,-9.12 142.75,0 5.81,82.72 2.49,167.93 0,250.65 -47.58,1.1 -95.17,2.21 -142.75,3.32 z"
         id="path561"
         inkscape:connector-curvature="0"
         style="fill:#a33d1e;fill-rule:evenodd;stroke:#000000;stroke-width:5" />
      <path
         d="m 131.13,692.17 0,23.24 c 18.26,0.55 36.52,3.59 54.78,1.66 3.04,-2.77 1.1,-12.18 1.66,-18.26 -20.48,-4.71 -37.63,-4.43 -56.44,-6.64 z"
         id="path562"
         inkscape:connector-curvature="0"
         style="fill:#ff791e;fill-rule:evenodd;stroke:#000000;stroke-width:5" />
      <path
         d="m 167.65,662.29 c -0.55,7.75 -1.94,15.49 -1.66,23.24 21.58,-1.11 41.49,-0.55 64.73,-3.32 4.71,-6.36 1.11,-14.39 1.66,-21.58 0,0 -51.45,-2.49 -64.73,1.66 z"
         id="path563"
         inkscape:connector-curvature="0"
         style="fill:#ff791e;fill-rule:evenodd;stroke:#000000;stroke-width:5" />
      <path
         d="m 210.8,697.15 c -0.55,6.64 -1.1,13.28 -1.66,19.92 23.24,0 44.82,-3.32 69.72,0 -2.77,-8.86 -5.53,-17.71 -8.3,-26.56 -19.92,-0.28 -39.84,4.43 -59.76,6.64 z"
         id="path564"
         inkscape:connector-curvature="0"
         style="fill:#ff791e;fill-rule:evenodd;stroke:#000000;stroke-width:5" />
      <path
         transform="matrix(1.271,0,0,1,-34.489,-3.0518e-5)"
         d="m 139.43,252.3 c 0.55,29.33 -2.21,53.67 6.64,87.98 16.05,-1.11 32.09,-2.22 48.13,-3.32 l 0,-87.98 c -6.63,-7.19 -33.19,2.22 -49.79,3.32 l -4.98,0 z"
         id="path565"
         inkscape:connector-curvature="0"
         style="fill:#4f567d;fill-rule:evenodd;stroke:#000000;stroke-width:5" />
      <path
         d="m 504.6,572.66 c -1.66,8.3 -2.49,16.6 0,24.9 6.09,-0.56 20.47,1.38 18.26,-1.66 1.11,-4.98 1.38,-13.28 -1.66,-19.92 -5.53,-1.94 -11.06,-3.88 -16.6,-3.32 z"
         id="path566"
         inkscape:connector-curvature="0"
         style="fill:#ffc81e;fill-rule:evenodd;stroke:#000000;stroke-width:5" />
      <path
         transform="matrix(1,0,0,1.0843,4.9484,-21.979)"
         d="m 81.334,356.87 c 92.676,-42.88 236.81,-102.36 280.52,-106.23 99.6,33.2 202.51,52.29 299.61,95.44 10.79,9.69 -0.79,30.16 -7.43,35.69 -97.93,-30.98 -192.58,-61 -292.18,-95.31 -92.95,36.52 -184.25,76.08 -277.21,112.6 -13.192,-6.08 -8.562,-39.14 -3.306,-42.19 z"
         id="path557"
         inkscape:connector-curvature="0"
         style="fill:#ff0000;fill-rule:evenodd;stroke:#000000;stroke-width:4.97009993" />
      <path
         d="m 9.9593,736.98 c 17.429,-3.32 710.43,-1.65 710.43,-1.65 -0.56,12.17 2.21,23.51 -1.66,36.51 -231,6.37 -466.98,6.09 -710.43,6.64 0.5527,-13.83 1.106,-27.66 1.6593,-41.5 z"
         id="path567"
         inkscape:connector-curvature="0"
         style="fill:url(#linearGradient571);fill-rule:evenodd" />
      <path
         d="m 8.2994,736.16 c 278.86,-4.98 429.91,-2.5 447.34,-2.5 14.11,0 273.88,0.01 265.58,0.01"
         id="path572"
         inkscape:connector-curvature="0"
         style="fill:none;stroke:#000000;stroke-width:5" />
    </g>
    <rect
       style="fill:none;stroke:#000000;stroke-width:0.46855384;stroke-linejoin:round;stroke-miterlimit:4;stroke-dasharray:none;stroke-dashoffset:0;stroke-opacity:1"
       id="rect3374"
       width="49.582413"
       height="46.902279"
       x="314.65015"
       y="174.17177" />
    <path
       style="fill:none;fill-rule:evenodd;stroke:#000000;stroke-width:0.46902284px;stroke-linecap:butt;stroke-linejoin:miter;stroke-opacity:1"
       d="m 324.53312,174.2555 v 46.90229"
       id="path4176"
       inkscape:connector-curvature="0" />
    <path
       style="fill:none;fill-rule:evenodd;stroke:#000000;stroke-width:0.46902284px;stroke-linecap:butt;stroke-linejoin:miter;stroke-opacity:1"
       d="m 353.7633,174.17175 v 46.90228"
       id="path4178"
       inkscape:connector-curvature="0" />
    <path
       style="fill:none;fill-rule:evenodd;stroke:#000000;stroke-width:0.46569452px;stroke-linecap:butt;stroke-linejoin:miter;stroke-opacity:1"
       d="m 314.67046,184.22224 h 49.54178"
       id="path4180"
       inkscape:connector-curvature="0" />
    <path
       style="fill:none;fill-rule:evenodd;stroke:#000000;stroke-width:0.47329199px;stroke-linecap:butt;stroke-linejoin:miter;stroke-opacity:1"
       d="m 314.91577,211.77733 h 49.46572"
       id="path4182"
       inkscape:connector-curvature="0" />
    <path
       style="fill:none;fill-rule:evenodd;stroke:#000000;stroke-width:0.46682131px;stroke-linecap:butt;stroke-linejoin:miter;stroke-opacity:1"
       d="m 314.31513,222.5697 h 50.11368"
       id="path4184"
       inkscape:connector-curvature="0" />
    <rect
       style="fill:#000000;fill-opacity:1;stroke:#000000;stroke-width:0.46855384;stroke-linejoin:round;stroke-miterlimit:4;stroke-dasharray:none;stroke-dashoffset:0;stroke-opacity:1"
       id="rect4186"
       width="5.0252447"
       height="4.6902285"
       x="316.60101"
       y="222.92505" />
    <rect
       style="fill:#000000;fill-opacity:1;stroke:#000000;stroke-width:0.46855384;stroke-linejoin:round;stroke-miterlimit:4;stroke-dasharray:none;stroke-dashoffset:0;stroke-opacity:1"
       id="rect4186-1"
       width="5.0252447"
       height="4.6902285"
       x="355.69138"
       y="222.90472" />
    <path
       style="fill:none;fill-opacity:1;stroke:#000000;stroke-width:0.38133895;stroke-linejoin:round;stroke-miterlimit:4;stroke-dasharray:none;stroke-dashoffset:0;stroke-opacity:1"
       id="path4203"
       sodipodi:type="arc"
       sodipodi:cx="338.49551"
       sodipodi:cy="221.08894"
       sodipodi:rx="4.3838053"
       sodipodi:ry="5.0875096"
       sodipodi:start="3.1945901"
       sodipodi:end="0.025541477"
       d="m 334.11786,220.81944 a 4.3838053,5.0875096 0 0 1 4.54976,-4.81408 4.3838053,5.0875096 0 0 1 4.21027,5.21351"
       sodipodi:open="true" />
    <path
       style="fill:none;fill-opacity:1;stroke:#ff6d00;stroke-width:0.20348646;stroke-linejoin:round;stroke-miterlimit:4;stroke-dasharray:none;stroke-dashoffset:0;stroke-opacity:1"
       id="path4205"
       sodipodi:type="arc"
       sodipodi:cx="338.48538"
       sodipodi:cy="219.41437"
       sodipodi:rx="1.0072298"
       sodipodi:ry="0.96937478"
       sodipodi:start="3.1945983"
       sodipodi:end="3.1870671"
       d="m 337.47957,219.36301 a 1.0072298,0.96937478 0 0 1 1.05728,-0.91675 1.0072298,0.96937478 0 0 1 0.95454,1.01582 1.0072298,0.96937478 0 0 1 -1.05369,0.92058 1.0072298,0.96937478 0 0 1 -0.95851,-1.01236"
       sodipodi:open="true" />
    <path
       style="fill:none;fill-rule:evenodd;stroke:#ff9b00;stroke-width:0.46902284px;stroke-linecap:butt;stroke-linejoin:miter;stroke-opacity:1"
       d="m 335.00238,173.58547 h 6.28156"
       id="path4209"
       inkscape:connector-curvature="0" />
    <rect
       style="fill:#000000;fill-opacity:0.47389556;stroke:#000000;stroke-width:0.49481562;stroke-linejoin:round;stroke-miterlimit:4;stroke-dasharray:none;stroke-dashoffset:0;stroke-opacity:1"
       id="rect4211"
       width="16.054522"
       height="12.53685"
       x="296.57239"
       y="208.60783" />
    <path
       style="fill:none;fill-rule:evenodd;stroke:#000000;stroke-width:0.8855176px;stroke-linecap:butt;stroke-linejoin:miter;stroke-opacity:1"
       d="m 216.06182,193.44643 97.22469,34.21223"
       id="path4213"
       inkscape:connector-curvature="0" />
    <path
       style="fill:none;fill-rule:evenodd;stroke:#000000;stroke-width:0.67101985px;stroke-linecap:butt;stroke-linejoin:miter;stroke-opacity:1"
       d="M 365.60278,228.43363 H 312.85714"
       id="path4215"
       inkscape:connector-curvature="0" />
    <path
       style="fill:none;stroke:#fd0000;stroke-width:1.6875;stroke-linecap:butt;stroke-linejoin:miter;stroke-miterlimit:4;stroke-dasharray:none;stroke-opacity:1"
       d="m 200.99312,110.1251 c -0.10399,81.06191 -0.10399,81.06191 -0.10399,81.06191"
       id="path5211"
       inkscape:connector-curvature="0" />
    <path
       style="fill:none;stroke:#fc0000;stroke-width:1.6875;stroke-linecap:butt;stroke-linejoin:miter;stroke-miterlimit:4;stroke-dasharray:none;stroke-opacity:1"
       d="m 200.8265,190.89773 c 167.61242,28.92919 83.80621,14.46459 0,0 z"
       id="path5213"
       inkscape:connector-curvature="0"
       sodipodi:nodetypes="cc" />
    <path
       style="fill:none;stroke:#0000f9;stroke-width:0.9375px;stroke-linecap:butt;stroke-linejoin:miter;stroke-opacity:1"
       d="m 337.49355,173.88462 c -1.17209,-0.42478 -3.42746,-6.21251 -13.96852,-5.2086 -12.5207,0.28218 -14.78288,3.0653 -15.50742,15.98092 -0.26986,8.08379 -0.0429,15.71606 0.35513,23.55708"
       id="path5217"
       inkscape:connector-curvature="0"
       sodipodi:nodetypes="cccc" />
  </g>
</svg>
